<?xml version="1.0" encoding="utf-8"?>
<svg version="1.1" xmlns:xlink="http://www.w3.org/1999/xlink" width="20px" height="18px" xmlns="http://www.w3.org/2000/svg">
  <g transform="matrix(1 0 0 1 -415 -139 )">
    <path d="M 10.2566964285714 8.51953125  C 10.3236607142857 8.44921875  10.3571428571429 8.359375  10.3571428571429 8.25  C 10.3571428571429 8.140625  10.3236607142857 8.05078125  10.2566964285714 7.98046875  C 10.1897321428571 7.91015625  10.1041666666667 7.875  10 7.875  C 9.50892857142857 7.875  9.08854166666667 8.05859375  8.73883928571429 8.42578125  C 8.38913690476191 8.79296875  8.21428571428571 9.234375  8.21428571428571 9.75  C 8.21428571428571 9.859375  8.24776785714286 9.94921875  8.31473214285714 10.01953125  C 8.38169642857143 10.08984375  8.46726190476191 10.125  8.57142857142857 10.125  C 8.67559523809524 10.125  8.76116071428571 10.08984375  8.828125 10.01953125  C 8.89508928571429 9.94921875  8.92857142857143 9.859375  8.92857142857143 9.75  C 8.92857142857143 9.4375  9.03273809523809 9.171875  9.24107142857143 8.953125  C 9.44940476190476 8.734375  9.70238095238095 8.625  10 8.625  C 10.1041666666667 8.625  10.1897321428571 8.58984375  10.2566964285714 8.51953125  Z M 12.0200892857143 7.65234375  C 12.578125 8.23828125  12.8571428571429 8.9453125  12.8571428571429 9.7734375  C 12.8571428571429 10.6015625  12.578125 11.30859375  12.0200892857143 11.89453125  C 11.4620535714286 12.48046875  10.7886904761905 12.7734375  10 12.7734375  C 9.21130952380952 12.7734375  8.53794642857143 12.48046875  7.97991071428571 11.89453125  C 7.421875 11.30859375  7.14285714285714 10.6015625  7.14285714285714 9.7734375  C 7.14285714285714 8.9453125  7.421875 8.23828125  7.97991071428571 7.65234375  C 8.53794642857143 7.06640625  9.21130952380952 6.7734375  10 6.7734375  C 10.7886904761905 6.7734375  11.4620535714286 7.06640625  12.0200892857143 7.65234375  Z M 1.42857142857143 15  L 1.42857142857143 16.5  L 18.5714285714286 16.5  L 18.5714285714286 15  L 1.42857142857143 15  Z M 13.0301339285714 12.955078125  C 13.8671875 12.076171875  14.2857142857143 11.015625  14.2857142857143 9.7734375  C 14.2857142857143 8.53125  13.8671875 7.470703125  13.0301339285714 6.591796875  C 12.1930803571429 5.712890625  11.1830357142857 5.2734375  10 5.2734375  C 8.81696428571429 5.2734375  7.80691964285714 5.712890625  6.96986607142857 6.591796875  C 6.1328125 7.470703125  5.71428571428571 8.53125  5.71428571428571 9.7734375  C 5.71428571428571 11.015625  6.1328125 12.076171875  6.96986607142857 12.955078125  C 7.80691964285714 13.833984375  8.81696428571429 14.2734375  10 14.2734375  C 11.1830357142857 14.2734375  12.1930803571429 13.833984375  13.0301339285714 12.955078125  Z M 2.85714285714286 0.749999999999999  L 2.85714285714286 2.25  L 7.14285714285714 2.25  L 7.14285714285714 0.749999999999999  L 2.85714285714286 0.749999999999999  Z M 1.42857142857143 3  L 1.42857142857143 4.5  L 18.5714285714286 4.5  L 18.5714285714286 3.1171875  L 18.5714285714286 1.5  L 9.33035714285714 1.5  L 8.61607142857143 3  L 1.42857142857143 3  Z M 19.5814732142857 0.439453125  C 19.8604910714286 0.732421874999999  20 1.0859375  20 1.5  L 20 16.5  C 20 16.9140625  19.8604910714286 17.267578125  19.5814732142857 17.560546875  C 19.3024553571429 17.853515625  18.9657738095238 18  18.5714285714286 18  L 1.42857142857143 18  C 1.03422619047619 18  0.697544642857143 17.853515625  0.418526785714286 17.560546875  C 0.139508928571429 17.267578125  0 16.9140625  0 16.5  L 0 1.5  C 0 1.0859375  0.139508928571429 0.732421874999999  0.418526785714286 0.439453125  C 0.697544642857143 0.146484375000001  1.03422619047619 0  1.42857142857143 0  L 18.5714285714286 0  C 18.9657738095238 0  19.3024553571429 0.146484375000001  19.5814732142857 0.439453125  Z " fill-rule="nonzero" fill="#81750c" stroke="none" fill-opacity="0.435294117647059" transform="matrix(1 0 0 1 415 139 )" />
  </g>
</svg>