<?xml version="1.0" encoding="utf-8"?>
<svg version="1.1" xmlns:xlink="http://www.w3.org/1999/xlink" width="15px" height="18px" xmlns="http://www.w3.org/2000/svg">
  <g transform="matrix(1 0 0 1 -417 -163 )">
    <path d="M 5.35866477272727 6.85546875  C 5.42258522727273 6.92578125  5.45454545454546 7.015625  5.45454545454546 7.125  L 5.45454545454546 13.875  C 5.45454545454546 13.984375  5.42258522727273 14.07421875  5.35866477272727 14.14453125  C 5.29474431818182 14.21484375  5.21306818181818 14.25  5.11363636363636 14.25  L 4.43181818181818 14.25  C 4.33238636363636 14.25  4.25071022727273 14.21484375  4.18678977272727 14.14453125  C 4.12286931818182 14.07421875  4.09090909090909 13.984375  4.09090909090909 13.875  L 4.09090909090909 7.125  C 4.09090909090909 7.015625  4.12286931818182 6.92578125  4.18678977272727 6.85546875  C 4.25071022727273 6.78515625  4.33238636363636 6.75  4.43181818181818 6.75  L 5.11363636363636 6.75  C 5.21306818181818 6.75  5.29474431818182 6.78515625  5.35866477272727 6.85546875  Z M 8.0859375 6.85546875  C 8.14985795454546 6.92578125  8.18181818181818 7.015625  8.18181818181818 7.125  L 8.18181818181818 13.875  C 8.18181818181818 13.984375  8.14985795454546 14.07421875  8.0859375 14.14453125  C 8.02201704545455 14.21484375  7.94034090909091 14.25  7.84090909090909 14.25  L 7.15909090909091 14.25  C 7.05965909090909 14.25  6.97798295454546 14.21484375  6.9140625 14.14453125  C 6.85014204545455 14.07421875  6.81818181818182 13.984375  6.81818181818182 13.875  L 6.81818181818182 7.125  C 6.81818181818182 7.015625  6.85014204545455 6.92578125  6.9140625 6.85546875  C 6.97798295454546 6.78515625  7.05965909090909 6.75  7.15909090909091 6.75  L 7.84090909090909 6.75  C 7.94034090909091 6.75  8.02201704545455 6.78515625  8.0859375 6.85546875  Z M 10.8132102272727 6.85546875  C 10.8771306818182 6.92578125  10.9090909090909 7.015625  10.9090909090909 7.125  L 10.9090909090909 13.875  C 10.9090909090909 13.984375  10.8771306818182 14.07421875  10.8132102272727 14.14453125  C 10.7492897727273 14.21484375  10.6676136363636 14.25  10.5681818181818 14.25  L 9.88636363636364 14.25  C 9.78693181818182 14.25  9.70525568181818 14.21484375  9.64133522727273 14.14453125  C 9.57741477272727 14.07421875  9.54545454545455 13.984375  9.54545454545455 13.875  L 9.54545454545455 7.125  C 9.54545454545455 7.015625  9.57741477272727 6.92578125  9.64133522727273 6.85546875  C 9.70525568181818 6.78515625  9.78693181818182 6.75  9.88636363636364 6.75  L 10.5681818181818 6.75  C 10.6676136363636 6.75  10.7492897727273 6.78515625  10.8132102272727 6.85546875  Z M 12.1981534090909 16.083984375  C 12.2478693181818 15.939453125  12.2727272727273 15.78125  12 15.609375  L 12 4.5  L 3 4.5  L 3 15.609375  C 2.72727272727273 15.78125  2.75213068181818 15.939453125  2.80184659090909 16.083984375  C 2.8515625 16.228515625  2.90305397727273 16.333984375  2.95632102272727 16.400390625  C 3.00958806818182 16.466796875  3.046875 16.5  3.06818181818182 16.5  L 11.9318181818182 16.5  C 11.953125 16.5  11.9904119318182 16.466796875  12.0436789772727 16.400390625  C 12.0969460227273 16.333984375  12.1484375 16.228515625  12.1981534090909 16.083984375  Z M 5.63565340909091 1.62890625  L 5.11363636363636 3  L 9.88636363636364 3  L 9.375 1.62890625  C 9.32528409090909 1.55859375  9.26491477272727 1.515625  9.19389204545455 1.5  L 5.81676136363636 1.5  C 5.74573863636364 1.515625  5.68536931818182 1.55859375  5.63565340909091 1.62890625  Z M 14.9041193181818 3.10546875  C 14.9680397727273 3.17578125  15 3.265625  15 3.375  L 15 4.125  C 15 4.234375  14.9680397727273 4.32421875  14.9041193181818 4.39453125  C 14.8401988636364 4.46484375  14.7585227272727 4.5  14.6590909090909 4.5  L 13.6363636363636 4.5  L 13.6363636363636 15.609375  C 13.6363636363636 16.2578125  13.4694602272727 16.818359375  13.1356534090909 17.291015625  C 12.8018465909091 17.763671875  12.4005681818182 18  11.9318181818182 18  L 3.06818181818182 18  C 2.59943181818182 18  2.19815340909091 17.771484375  1.86434659090909 17.314453125  C 1.53053977272727 16.857421875  1.36363636363636 16.3046875  1.36363636363636 15.65625  L 1.36363636363636 4.5  L 0.340909090909091 4.5  C 0.241477272727273 4.5  0.159801136363636 4.46484375  0.0958806818181818 4.39453125  C 0.0319602272727273 4.32421875  0 4.234375  0 4.125  L 0 3.375  C 0 3.265625  0.0319602272727273 3.17578125  0.0958806818181818 3.10546875  C 0.159801136363636 3.03515625  0.241477272727273 3  0.340909090909091 3  L 3.6328125 3  L 4.37855113636364 1.04296875  C 4.48508522727273 0.753906249999998  4.67684659090909 0.507812499999998  4.95383522727273 0.304687500000001  C 5.23082386363636 0.101562499999999  5.51136363636364 0  5.79545454545455 0  L 9.20454545454546 0  C 9.48863636363637 0  9.76917613636364 0.101562499999999  10.0461647727273 0.304687500000001  C 10.3231534090909 0.507812499999998  10.5149147727273 0.753906249999998  10.6214488636364 1.04296875  L 11.3671875 3  L 14.6590909090909 3  C 14.7585227272727 3  14.8401988636364 3.03515625  14.9041193181818 3.10546875  Z " fill-rule="nonzero" fill="#797979" stroke="none" fill-opacity="0.815686274509804" transform="matrix(1 0 0 1 417 163 )" />
  </g>
</svg>