<?xml version="1.0" encoding="utf-8"?>
<svg version="1.1" xmlns:xlink="http://www.w3.org/1999/xlink" width="24px" height="24px" xmlns="http://www.w3.org/2000/svg">
  <g transform="matrix(1 0 0 1 -322 -141 )">
    <path d="M 17.4375 21.0661625708885  L 16.3990384615385 14.6994328922495  L 20.8125 10.2079395085066  L 14.7259615384615 9.2703213610586  L 12 3.49338374291115  L 9.27403846153846 9.2703213610586  L 3.1875 10.2079395085066  L 7.60096153846154 14.6994328922495  L 6.54807692307692 21.0661625708885  L 12 18.0567107750473  L 17.4375 21.0661625708885  Z M 23.1923076923077 8.60491493383743  C 23.7307692307692 8.69565217391304  24 8.92753623188406  24 9.30056710775047  C 24 9.52236925015753  23.875 9.7643352236925  23.625 10.0264650283554  L 18.3894230769231 15.3799621928166  L 19.6298076923077 22.9413988657845  C 19.6394230769231 23.0119722747322  19.6442307692308 23.1127914303718  19.6442307692308 23.2438563327032  C 19.6442307692308 23.7479521109011  19.4471153846154 24  19.0528846153846 24  C 18.8701923076923 24  18.6778846153846 23.9395085066163  18.4759615384615 23.8185255198488  L 12 20.2495274102079  L 5.52403846153846 23.8185255198488  C 5.3125 23.9395085066163  5.12019230769231 24  4.94711538461538 24  C 4.74519230769231 24  4.59375 23.9269061121613  4.49278846153846 23.7807183364839  C 4.39182692307692 23.6345305608066  4.34134615384615 23.4555765595463  4.34134615384615 23.2438563327032  C 4.34134615384615 23.1833648393195  4.35096153846154 23.0825456836799  4.37019230769231 22.9413988657845  L 5.61057692307692 15.3799621928166  L 0.360576923076923 10.0264650283554  C 0.120192307692308 9.75425330812854  0 9.51228733459357  0 9.30056710775047  C 0 8.92753623188406  0.269230769230769 8.69565217391304  0.807692307692308 8.60491493383743  L 8.04807692307692 7.50094517958412  L 11.2932692307692 0.620037807183364  C 11.4759615384615 0.20667926906112  11.7115384615385 0  12 0  C 12.2884615384615 0  12.5240384615385 0.20667926906112  12.7067307692308 0.620037807183364  L 15.9519230769231 7.50094517958412  L 23.1923076923077 8.60491493383743  Z " fill-rule="nonzero" fill="#333333" stroke="none" fill-opacity="0.482352941176471" transform="matrix(1 0 0 1 322 141 )" />
  </g>
</svg>